<svg width="100" height="100" viewBox="0 0 100 100" fill="none" xmlns="http://www.w3.org/2000/svg">
<g clip-path="url(#clip0_36_162)">
<path d="M50.0001 0C22.386 0 6.10352e-05 22.3859 6.10352e-05 50C6.10352e-05 77.6141 22.386 100 50.0001 100C77.6141 100 100 77.6141 100 50C100 22.3859 77.6141 0 50.0001 0ZM50.0001 96.875C24.111 96.875 3.12506 75.8875 3.12506 50C3.12506 24.1109 24.111 3.125 50.0001 3.125C75.8891 3.125 96.8751 24.1109 96.8751 50C96.8751 75.8875 75.8891 96.875 50.0001 96.875Z" fill="white"/>
<path d="M50.0001 51.5625C50.863 51.5625 51.5626 50.8629 51.5626 50C51.5626 49.1371 50.863 48.4375 50.0001 48.4375C49.1371 48.4375 48.4376 49.1371 48.4376 50C48.4376 50.8629 49.1371 51.5625 50.0001 51.5625Z" fill="white"/>
<path d="M57.7047 51.075C57.7532 50.7203 57.8126 50.3688 57.8126 50C57.8126 47.4516 56.5751 45.2125 54.6876 43.7844V21.875C54.6876 19.2859 52.5891 17.1875 50.0001 17.1875C47.411 17.1875 45.3126 19.2859 45.3126 21.875V43.7844C43.4251 45.2109 42.1876 47.4516 42.1876 50C42.1876 54.3156 45.6844 57.8125 50.0001 57.8125C50.3672 57.8125 50.7204 57.7531 51.0751 57.7047L64.3641 70.9938C66.1954 72.825 69.161 72.8234 70.9923 70.9922C72.8235 69.1609 72.8235 66.1953 70.9923 64.3641L57.7047 51.075ZM48.4376 21.875C48.4376 21.0109 49.136 20.3125 50.0001 20.3125C50.8641 20.3125 51.5626 21.0109 51.5626 21.875V42.3453C51.0579 42.2422 50.536 42.1875 50.0001 42.1875C49.4641 42.1875 48.9422 42.2422 48.4376 42.3453V21.875ZM45.3126 50C45.3126 47.4109 47.411 45.3125 50.0001 45.3125C52.5891 45.3125 54.6876 47.4109 54.6876 50C54.6876 52.5891 52.5891 54.6875 50.0001 54.6875C47.411 54.6875 45.3126 52.5891 45.3126 50ZM68.7829 68.7828C68.1719 69.3953 67.1844 69.3953 66.5735 68.7844L54.3032 56.5141C55.1813 55.9328 55.9329 55.1813 56.5141 54.3031L68.7829 66.5734C69.3922 67.1828 69.3922 68.1719 68.7829 68.7828Z" fill="white"/>
<path d="M50.0001 6.25C25.8376 6.25 6.25006 25.8375 6.25006 50C6.25006 74.1625 25.8376 93.75 50.0001 93.75C74.1626 93.75 93.7501 74.1625 93.7501 50C93.7501 25.8375 74.1626 6.25 50.0001 6.25ZM79.8047 77.5938L76.5188 74.3063C75.9047 73.6969 74.9172 73.6969 74.3079 74.3063C73.6969 74.9187 73.6969 75.9047 74.3079 76.5172L77.5954 79.8047C70.7063 86.1875 61.6032 90.2062 51.5641 90.5859L51.5657 85.9391C51.5626 85.075 50.8641 84.3766 50.0032 84.3766C49.1376 84.3781 48.4407 85.075 48.4407 85.9391L48.4391 90.5859C38.4001 90.2062 29.2969 86.1891 22.4079 79.8078L25.6954 76.5203C26.3047 75.9078 26.3047 74.9203 25.6954 74.3109C25.0813 73.7 24.0969 73.7 23.486 74.3109L20.1985 77.5984C13.8172 70.7094 9.7985 61.6062 9.41725 51.5672H14.0641C14.9282 51.5656 15.6266 50.8672 15.6266 50.0047C15.6251 49.1391 14.9282 48.4422 14.0641 48.4422H9.41412C9.79381 38.4031 13.811 29.2984 20.1922 22.4094L23.4797 25.6969C24.0907 26.3078 25.0782 26.3078 25.6891 25.6969C26.3001 25.0844 26.3001 24.0984 25.6891 23.4875L22.4016 20.2C29.2907 13.8172 38.3954 9.79844 48.4344 9.41875V14.0625C48.4344 14.9266 49.1329 15.625 49.9969 15.625C50.861 15.625 51.5594 14.9266 51.5594 14.0625V9.41406C61.5985 9.79375 70.7032 13.8109 77.5922 20.1937L74.3047 23.4813C73.6938 24.0922 73.6938 25.0797 74.3047 25.6906C74.9157 26.3016 75.9032 26.3016 76.5141 25.6906L79.8032 22.4031C86.1844 29.2922 90.2032 38.3969 90.5829 48.4359H85.9376C85.0735 48.4359 84.3751 49.1344 84.3751 49.9984C84.3751 50.8625 85.0735 51.5609 85.9376 51.5609H90.586C90.2047 61.6016 86.1876 70.7047 79.8047 77.5938Z" fill="white"/>
</g>
<defs>
<clipPath id="clip0_36_162">
<rect width="100" height="100" fill="white"/>
</clipPath>
</defs>
</svg>
