<svg width="100" height="100" viewBox="0 0 100 100" fill="none" xmlns="http://www.w3.org/2000/svg">
<g clip-path="url(#clip0_36_168)">
<path d="M99.8969 49.4454C99.8735 49.3876 99.4969 48.436 98.7407 46.8704C94.6829 38.4798 79.7188 12.5063 50.0001 12.5063C14.7376 12.5063 0.246937 49.0751 0.103187 49.4454C-0.0358757 49.8064 -0.0358757 50.2063 0.103187 50.5688C0.246937 50.9376 14.7376 87.5063 50.0001 87.5063C79.7032 87.5063 94.6672 61.561 98.7329 53.1579C99.4923 51.5845 99.8719 50.6267 99.8954 50.5688C100.034 50.2063 100.034 49.8064 99.8969 49.4454ZM50.0001 84.3813C19.2407 84.3813 5.19225 54.5017 3.25475 50.0048C5.18912 45.5017 19.2001 15.6313 50.0001 15.6313C80.7594 15.6313 94.8079 45.511 96.7454 50.0079C94.811 54.511 80.8001 84.3813 50.0001 84.3813Z" fill="white"/>
<path d="M50.0001 25.0127C36.1922 25.0127 25.0001 36.2049 25.0001 50.0127C25.0001 63.8205 36.1922 75.0127 50.0001 75.0127C63.8079 75.0127 75.0001 63.8205 75.0001 50.0127C75.0001 36.2049 63.8079 25.0127 50.0001 25.0127ZM50.0001 71.8877C37.9188 71.8877 28.1251 62.0939 28.1251 50.0127C28.1251 37.9314 37.9188 28.1377 50.0001 28.1377C62.0813 28.1377 71.8751 37.9314 71.8751 50.0127C71.8751 62.0939 62.0813 71.8877 50.0001 71.8877Z" fill="white"/>
<path d="M50.0001 37.5127C43.0969 37.5127 37.5001 43.1096 37.5001 50.0127C37.5001 56.9158 43.0969 62.5127 50.0001 62.5127C56.9032 62.5127 62.5001 56.9158 62.5001 50.0127C62.5001 43.1096 56.9032 37.5127 50.0001 37.5127ZM50.0001 59.3877C44.8235 59.3877 40.6251 55.1893 40.6251 50.0127C40.6251 44.8361 44.8235 40.6377 50.0001 40.6377C55.1766 40.6377 59.3751 44.8361 59.3751 50.0127C59.3751 55.1893 55.1766 59.3877 50.0001 59.3877Z" fill="white"/>
<path d="M50.0001 43.7563C49.136 43.7563 48.4376 44.4548 48.4376 45.3188C48.4376 46.1829 49.136 46.8813 50.0001 46.8813C51.7251 46.8813 53.1251 48.2814 53.1251 50.0064C53.1251 50.8704 53.8235 51.5689 54.6876 51.5689C55.5516 51.5689 56.2501 50.8704 56.2501 50.0064C56.2501 46.5548 53.4516 43.7563 50.0001 43.7563Z" fill="white"/>
</g>
<defs>
<clipPath id="clip0_36_168">
<rect width="100" height="100" fill="white"/>
</clipPath>
</defs>
</svg>
