<svg width="78" height="90" viewBox="0 0 78 90" fill="none" xmlns="http://www.w3.org/2000/svg">
<path d="M64 10.6249H14C12.275 10.6249 10.875 12.0249 10.875 13.7499V76.2499C10.875 77.9749 12.275 79.3749 14 79.3749H64C65.725 79.3749 67.125 77.9749 67.125 76.2499V13.7499C67.125 12.0249 65.725 10.6249 64 10.6249ZM64 76.2499H14V13.7499H64V76.2499ZM74.6938 58.8218C73.9063 58.0343 73.7094 56.8312 74.2094 55.8343L75.4344 53.3874C78.0719 48.1093 78.0719 41.8968 75.4344 36.6187L74.2125 34.1718C73.7156 33.1749 73.9094 31.9718 74.6969 31.1843L75.2094 30.6718C77.65 28.2312 77.65 24.2749 75.2094 21.8343L74.1375 20.7624C73.6469 20.2718 73.375 19.6124 73.375 18.928V13.7499C73.375 8.57178 69.1781 4.3749 64 4.3749H58.8219C58.1344 4.3749 57.4781 4.10303 56.9906 3.61553L55.9188 2.54365C54.7 1.3249 53.1 0.712402 51.5 0.712402C49.9 0.712402 48.3 1.32178 47.0813 2.54365C46.575 3.0499 45.9125 3.30303 45.25 3.30303C44.5875 3.30303 43.925 3.0499 43.4188 2.54365C42.2 1.3249 40.6 0.712402 39 0.712402C37.4 0.712402 35.8 1.32178 34.5813 2.54365C34.075 3.0499 33.4125 3.30303 32.75 3.30303C32.0875 3.30303 31.425 3.0499 30.9188 2.54365C29.7 1.3249 28.1 0.712402 26.5 0.712402C24.9 0.712402 23.3 1.32178 22.0813 2.54365L21.0094 3.61553C20.5219 4.10303 19.8656 4.3749 19.1781 4.3749H14C8.82188 4.3749 4.62501 8.57178 4.62501 13.7499V18.928C4.62501 19.6155 4.35313 20.2718 3.86563 20.7593L2.79688 21.8312C0.356256 24.2718 0.356256 28.2312 2.79688 30.6718L3.30626 31.1812C4.09376 31.9687 4.29063 33.1718 3.79063 34.1687L2.56876 36.6155C-0.0718689 41.8937 -0.0718689 48.1062 2.56876 53.3843L3.79063 55.8312C4.28751 56.828 4.09376 58.0312 3.30626 58.8187L2.79376 59.3312C0.353131 61.7718 0.353131 65.728 2.79376 68.1687L3.86563 69.2405C4.35313 69.728 4.62501 70.3874 4.62501 71.0718V76.2499C4.62501 81.428 8.82188 85.6249 14 85.6249H19.1781C19.8656 85.6249 20.5219 85.8968 21.0094 86.3843L22.0813 87.4562C23.3031 88.678 24.9 89.2874 26.5 89.2874C28.1 89.2874 29.7 88.678 30.9188 87.4562C31.425 86.9499 32.0875 86.6968 32.75 86.6968C33.4125 86.6968 34.075 86.9499 34.5813 87.4562C35.8031 88.678 37.4 89.2874 39 89.2874C40.6 89.2874 42.2 88.678 43.4188 87.4562C43.925 86.9499 44.5875 86.6968 45.25 86.6968C45.9125 86.6968 46.575 86.9499 47.0813 87.4562C48.3031 88.678 49.9 89.2874 51.5 89.2874C53.1 89.2874 54.7 88.678 55.9188 87.4562L56.9906 86.3843C57.4781 85.8968 58.1344 85.6249 58.8219 85.6249H64C69.1781 85.6249 73.375 81.428 73.375 76.2499V71.0718C73.375 70.3843 73.6469 69.728 74.1344 69.2405L75.2063 68.1687C77.6469 65.728 77.6469 61.7687 75.2063 59.328L74.6938 58.8218ZM72.9969 65.9593L71.925 67.0312C70.8438 68.1124 70.25 69.5468 70.25 71.0718V76.2499C70.25 79.6968 67.4469 82.4999 64 82.4999H58.8219C57.2969 82.4999 55.8594 83.0937 54.7813 84.1749L53.7094 85.2468C53.1188 85.8374 52.3344 86.1624 51.5 86.1624C50.6656 86.1624 49.8813 85.8374 49.2906 85.2468C48.2125 84.1687 46.775 83.5718 45.25 83.5718C43.725 83.5718 42.2875 84.1655 41.2094 85.2468C40.6188 85.8374 39.8344 86.1624 39 86.1624C38.1656 86.1624 37.3813 85.8374 36.7906 85.2468C35.7125 84.1687 34.275 83.5718 32.75 83.5718C31.225 83.5718 29.7875 84.1655 28.7094 85.2468C28.1188 85.8374 27.3344 86.1624 26.5 86.1624C25.6656 86.1624 24.8813 85.8374 24.2906 85.2468L23.2188 84.1749C22.1375 83.0937 20.7031 82.4999 19.1781 82.4999H14C10.5531 82.4999 7.75001 79.6968 7.75001 76.2499V71.0718C7.75001 69.5468 7.15626 68.1093 6.07813 67.0312L5.00626 65.9593C3.78751 64.7405 3.78751 62.7593 5.00626 61.5405L5.51876 61.028C7.25938 59.2874 7.69063 56.6343 6.59063 54.4312L5.36876 51.9843C3.18126 47.6093 3.18126 42.3843 5.36876 38.0093L6.59063 35.5624C7.69376 33.3593 7.26251 30.7093 5.51876 28.9655L5.00938 28.4562C4.41563 27.8687 4.09063 27.0843 4.09063 26.2499C4.09063 25.4155 4.41563 24.6312 5.00626 24.0405L6.07501 22.9687C7.15626 21.8905 7.75001 20.4562 7.75001 18.928V13.7499C7.75001 10.303 10.5531 7.4999 14 7.4999H19.1781C20.7031 7.4999 22.1406 6.90615 23.2188 5.8249L24.2906 4.75303C24.8813 4.1624 25.6656 3.8374 26.5 3.8374C27.3344 3.8374 28.1188 4.1624 28.7094 4.75303C29.7875 5.83428 31.225 6.42803 32.75 6.42803C34.275 6.42803 35.7125 5.83428 36.7906 4.75303C37.3813 4.1624 38.1656 3.8374 39 3.8374C39.8344 3.8374 40.6188 4.1624 41.2094 4.75303C42.2875 5.83428 43.725 6.42803 45.25 6.42803C46.775 6.42803 48.2125 5.83428 49.2906 4.75303C49.8813 4.1624 50.6656 3.8374 51.5 3.8374C52.3344 3.8374 53.1188 4.1624 53.7094 4.75303L54.7813 5.8249C55.8625 6.90615 57.2969 7.4999 58.8219 7.4999H64C67.4469 7.4999 70.25 10.303 70.25 13.7499V18.928C70.25 20.453 70.8438 21.8905 71.9219 22.9687L72.9938 24.0405C74.2125 25.2593 74.2125 27.2405 72.9938 28.4593L72.4813 28.9718C70.7406 30.7124 70.3094 33.3655 71.4094 35.5687L72.6313 38.0155C74.8188 42.3905 74.8188 47.6155 72.6313 51.9905L71.4063 54.4374C70.3031 56.6405 70.7344 59.2905 72.4781 61.0343L72.9875 61.5437C73.5781 62.1343 73.9031 62.9187 73.9031 63.753C73.9094 64.5843 73.5844 65.3687 72.9969 65.9593Z" fill="#FFF7ED"/>
</svg>
