<svg width="100" height="100" viewBox="0 0 100 100" fill="none" xmlns="http://www.w3.org/2000/svg">
<path d="M75 15.6249H25C23.275 15.6249 21.875 17.0249 21.875 18.7499V81.2499C21.875 82.9749 23.275 84.3749 25 84.3749H75C76.725 84.3749 78.125 82.9749 78.125 81.2499V18.7499C78.125 17.0249 76.725 15.6249 75 15.6249ZM75 81.2499H25V18.7499H75V81.2499ZM85.6938 63.8218C84.9063 63.0343 84.7094 61.8312 85.2094 60.8343L86.4344 58.3874C89.0719 53.1093 89.0719 46.8968 86.4344 41.6187L85.2125 39.1718C84.7156 38.1749 84.9094 36.9718 85.6969 36.1843L86.2094 35.6718C88.65 33.2312 88.65 29.2749 86.2094 26.8343L85.1375 25.7624C84.6469 25.2718 84.375 24.6124 84.375 23.928V18.7499C84.375 13.5718 80.1781 9.3749 75 9.3749H69.8219C69.1344 9.3749 68.4781 9.10303 67.9906 8.61553L66.9188 7.54365C65.7 6.3249 64.1 5.7124 62.5 5.7124C60.9 5.7124 59.3 6.32178 58.0813 7.54365C57.575 8.0499 56.9125 8.30303 56.25 8.30303C55.5875 8.30303 54.925 8.0499 54.4188 7.54365C53.2 6.3249 51.6 5.7124 50 5.7124C48.4 5.7124 46.8 6.32178 45.5813 7.54365C45.075 8.0499 44.4125 8.30303 43.75 8.30303C43.0875 8.30303 42.425 8.0499 41.9188 7.54365C40.7 6.3249 39.1 5.7124 37.5 5.7124C35.9 5.7124 34.3 6.32178 33.0813 7.54365L32.0094 8.61553C31.5219 9.10303 30.8656 9.3749 30.1781 9.3749H25C19.8219 9.3749 15.625 13.5718 15.625 18.7499V23.928C15.625 24.6155 15.3531 25.2718 14.8656 25.7593L13.7969 26.8312C11.3563 29.2718 11.3563 33.2312 13.7969 35.6718L14.3063 36.1812C15.0938 36.9687 15.2906 38.1718 14.7906 39.1687L13.5688 41.6155C10.9281 46.8937 10.9281 53.1062 13.5688 58.3843L14.7906 60.8312C15.2875 61.828 15.0938 63.0312 14.3063 63.8187L13.7938 64.3312C11.3531 66.7718 11.3531 70.728 13.7938 73.1687L14.8656 74.2405C15.3531 74.728 15.625 75.3874 15.625 76.0718V81.2499C15.625 86.428 19.8219 90.6249 25 90.6249H30.1781C30.8656 90.6249 31.5219 90.8968 32.0094 91.3843L33.0813 92.4562C34.3031 93.678 35.9 94.2874 37.5 94.2874C39.1 94.2874 40.7 93.678 41.9188 92.4562C42.425 91.9499 43.0875 91.6968 43.75 91.6968C44.4125 91.6968 45.075 91.9499 45.5813 92.4562C46.8031 93.678 48.4 94.2874 50 94.2874C51.6 94.2874 53.2 93.678 54.4188 92.4562C54.925 91.9499 55.5875 91.6968 56.25 91.6968C56.9125 91.6968 57.575 91.9499 58.0813 92.4562C59.3031 93.678 60.9 94.2874 62.5 94.2874C64.1 94.2874 65.7 93.678 66.9188 92.4562L67.9906 91.3843C68.4781 90.8968 69.1344 90.6249 69.8219 90.6249H75C80.1781 90.6249 84.375 86.428 84.375 81.2499V76.0718C84.375 75.3843 84.6469 74.728 85.1344 74.2405L86.2063 73.1687C88.6469 70.728 88.6469 66.7687 86.2063 64.328L85.6938 63.8218ZM83.9969 70.9593L82.925 72.0312C81.8438 73.1124 81.25 74.5468 81.25 76.0718V81.2499C81.25 84.6968 78.4469 87.4999 75 87.4999H69.8219C68.2969 87.4999 66.8594 88.0937 65.7813 89.1749L64.7094 90.2468C64.1188 90.8374 63.3344 91.1624 62.5 91.1624C61.6656 91.1624 60.8813 90.8374 60.2906 90.2468C59.2125 89.1687 57.775 88.5718 56.25 88.5718C54.725 88.5718 53.2875 89.1655 52.2094 90.2468C51.6188 90.8374 50.8344 91.1624 50 91.1624C49.1656 91.1624 48.3813 90.8374 47.7906 90.2468C46.7125 89.1687 45.275 88.5718 43.75 88.5718C42.225 88.5718 40.7875 89.1655 39.7094 90.2468C39.1188 90.8374 38.3344 91.1624 37.5 91.1624C36.6656 91.1624 35.8813 90.8374 35.2906 90.2468L34.2188 89.1749C33.1375 88.0937 31.7031 87.4999 30.1781 87.4999H25C21.5531 87.4999 18.75 84.6968 18.75 81.2499V76.0718C18.75 74.5468 18.1563 73.1093 17.0781 72.0312L16.0063 70.9593C14.7875 69.7405 14.7875 67.7593 16.0063 66.5405L16.5188 66.028C18.2594 64.2874 18.6906 61.6343 17.5906 59.4312L16.3688 56.9843C14.1813 52.6093 14.1813 47.3843 16.3688 43.0093L17.5906 40.5624C18.6938 38.3593 18.2625 35.7093 16.5188 33.9655L16.0094 33.4562C15.4156 32.8687 15.0906 32.0843 15.0906 31.2499C15.0906 30.4155 15.4156 29.6312 16.0063 29.0405L17.075 27.9687C18.1563 26.8905 18.75 25.4562 18.75 23.928V18.7499C18.75 15.303 21.5531 12.4999 25 12.4999H30.1781C31.7031 12.4999 33.1406 11.9062 34.2188 10.8249L35.2906 9.75303C35.8813 9.1624 36.6656 8.8374 37.5 8.8374C38.3344 8.8374 39.1188 9.1624 39.7094 9.75303C40.7875 10.8343 42.225 11.428 43.75 11.428C45.275 11.428 46.7125 10.8343 47.7906 9.75303C48.3813 9.1624 49.1656 8.8374 50 8.8374C50.8344 8.8374 51.6188 9.1624 52.2094 9.75303C53.2875 10.8343 54.725 11.428 56.25 11.428C57.775 11.428 59.2125 10.8343 60.2906 9.75303C60.8813 9.1624 61.6656 8.8374 62.5 8.8374C63.3344 8.8374 64.1188 9.1624 64.7094 9.75303L65.7813 10.8249C66.8625 11.9062 68.2969 12.4999 69.8219 12.4999H75C78.4469 12.4999 81.25 15.303 81.25 18.7499V23.928C81.25 25.453 81.8438 26.8905 82.9219 27.9687L83.9938 29.0405C85.2125 30.2593 85.2125 32.2405 83.9938 33.4593L83.4813 33.9718C81.7406 35.7124 81.3094 38.3655 82.4094 40.5687L83.6313 43.0155C85.8188 47.3905 85.8188 52.6155 83.6313 56.9905L82.4063 59.4374C81.3031 61.6405 81.7344 64.2905 83.4781 66.0343L83.9875 66.5437C84.5781 67.1343 84.9031 67.9187 84.9031 68.753C84.9094 69.5843 84.5844 70.3687 83.9969 70.9593Z" fill="#FFF7ED"/>
</svg>
