<svg width="100" height="100" viewBox="0 0 100 100" fill="none" xmlns="http://www.w3.org/2000/svg">
<path d="M50.0002 0C29.2893 0 12.5002 16.7891 12.5002 37.5C12.5002 46.3719 16.4096 54.1734 20.7362 60.9375L47.4502 98.6812C48.0362 99.5094 48.9877 100 50.0002 100C51.0127 100 51.9643 99.5094 52.5502 98.6812L79.2643 60.9375C83.3987 55.3719 87.5002 46.3719 87.5002 37.5C87.5002 16.7891 70.7112 0 50.0002 0ZM75.1362 60.9375H75.1206L50.0002 95.3125L24.8799 60.9375H24.8643C21.0456 55.4203 15.6252 46.5609 15.6252 37.5C15.6252 18.5156 31.0159 3.125 50.0002 3.125C68.9846 3.125 84.3752 18.5156 84.3752 37.5C84.3752 46.5609 78.5643 55.9078 75.1362 60.9375Z" fill="white"/>
<path d="M50.0002 21.875C41.3706 21.875 34.3752 28.8719 34.3752 37.5C34.3752 46.1281 41.3706 53.125 50.0002 53.125C58.6299 53.125 65.6252 46.1281 65.6252 37.5C65.6252 28.8719 58.6299 21.875 50.0002 21.875ZM50.0002 50C43.0971 50 37.5002 44.4031 37.5002 37.5C37.5002 30.5969 43.0971 25 50.0002 25C56.9034 25 62.5002 30.5969 62.5002 37.5C62.5002 44.4031 56.9034 50 50.0002 50Z" fill="white"/>
<path d="M50.0002 15.625C37.919 15.625 28.1252 25.4187 28.1252 37.5C28.1252 49.5812 37.919 59.375 50.0002 59.375C62.0815 59.375 71.8752 49.5812 71.8752 37.5C71.8752 25.4187 62.0815 15.625 50.0002 15.625ZM50.0002 56.25C39.6456 56.25 31.2502 47.8547 31.2502 37.5C31.2502 27.1453 39.6456 18.75 50.0002 18.75C60.3549 18.75 68.7502 27.1453 68.7502 37.5C68.7502 47.8547 60.3549 56.25 50.0002 56.25Z" fill="white"/>
</svg>
