<svg width="100" height="100" viewBox="0 0 100 100" fill="none" xmlns="http://www.w3.org/2000/svg">
<g clip-path="url(#clip0_36_174)">
<path d="M98.169 58.0813L75.5424 35.4531L75.5612 35.4703C76.194 33.1266 76.5627 30.6703 76.5627 28.125C76.5627 12.5938 63.9706 0 48.4377 0C45.8393 0 43.3346 0.38125 40.9487 1.04062C39.9331 0.36875 38.7362 0 37.5002 0H6.25024C2.79868 0 0.000244141 2.79844 0.000244141 6.25V37.5C0.000244141 39.1578 0.659619 40.7469 1.83149 41.9187L58.0815 98.1687C59.3002 99.3891 60.9018 100 62.5002 100C64.0987 100 65.7002 99.3891 66.919 98.1687L98.169 66.9187C100.611 64.4797 100.611 60.5203 98.169 58.0813ZM48.4377 3.12656C62.2456 3.12656 73.4377 14.3187 73.4377 28.1266C73.4377 29.6937 73.2549 31.3891 72.9768 32.8891L70.2112 30.1234L70.1737 30.0844C70.2331 29.4609 70.3127 28.7234 70.3127 28.1266C70.3127 16.0469 60.519 6.25156 48.4377 6.25156C47.7627 6.25156 47.1002 6.29219 46.4409 6.35156C45.1596 6.46719 43.9159 6.70781 42.7049 7.03594C37.1971 8.52812 32.5643 12.1125 29.694 16.8922C29.1549 17.7875 28.6627 18.7125 28.2549 19.6859C27.1674 22.2844 26.5627 25.1344 26.5627 28.1266C26.5627 29.0906 26.7674 30.9656 26.7674 30.9656C26.7674 30.9656 25.619 31.25 25.0002 31.25C24.5268 31.25 24.0706 31.1875 23.6284 31.0875C23.569 31.075 23.5768 31.075 23.6284 31.0875C23.5143 30.1141 23.4377 29.1312 23.4377 28.1266C23.4377 24.8172 24.0956 21.6672 25.2627 18.7781C25.6815 17.7437 26.1643 16.7484 26.7112 15.7891C29.6784 10.575 34.4659 6.54688 40.2112 4.54219C41.3362 4.14844 42.4893 3.82187 43.6815 3.59375C45.2206 3.29375 46.8096 3.12656 48.4377 3.12656ZM67.1331 27.0453L49.519 9.43125C59.0081 9.97344 66.5893 17.5547 67.1331 27.0453ZM31.2502 25C31.2502 26.5484 30.6706 27.9453 29.7331 29.0297C29.7206 28.7297 29.6877 28.4328 29.6877 28.1266C29.6877 26.0938 30.0206 24.1422 30.619 22.3078C31.0127 23.1266 31.2502 24.0328 31.2502 25ZM20.3127 28.125C20.3127 28.4547 20.3471 28.7781 20.3612 29.1047C19.3784 28.0063 18.7502 26.5906 18.7502 25C18.7502 22.8172 19.8752 20.8984 21.5721 19.7812C20.7534 22.4187 20.3127 25.2203 20.3127 28.125ZM95.9596 64.7094L64.7081 95.9594C64.119 96.55 63.3346 96.875 62.5002 96.875C61.6659 96.875 60.8815 96.55 60.2909 95.9594L4.04087 39.7094C3.45962 39.1266 3.12524 38.3203 3.12524 37.5V6.25C3.12524 4.525 4.52681 3.125 6.25024 3.125H35.5909C30.2065 5.89844 25.8487 10.3547 23.1846 15.8047C18.8768 16.65 15.6252 20.4438 15.6252 25C15.6252 30.1766 19.8237 34.375 25.0002 34.375C30.1768 34.375 34.3752 30.1766 34.3752 25C34.3752 22.675 33.5237 20.55 32.1206 18.9125C34.8518 14.0875 39.6549 10.6062 45.3252 9.65625L95.9596 60.2906C96.5502 60.8812 96.8752 61.6656 96.8752 62.5C96.8752 63.3344 96.5502 64.1188 95.9596 64.7094Z" fill="white"/>
<path d="M78.3159 59.1875C76.4877 57.3594 73.5143 57.3579 71.6862 59.186L59.2112 71.661C57.3846 73.4875 57.3174 76.5297 59.1456 78.3579C60.9706 80.186 64.0018 80.1297 65.8299 78.3016L78.3174 65.8172H78.3143C80.1424 63.9891 80.1424 61.0141 78.3159 59.1875ZM76.1049 63.6079L63.6674 76.0454C63.0565 76.6563 61.9612 76.7594 61.3549 76.1485C60.744 75.5375 60.8237 74.4704 61.4346 73.8594L73.8971 61.3969C74.508 60.786 75.4956 60.786 76.1065 61.3969C76.7159 62.0063 76.7159 62.9969 76.1049 63.6079Z" fill="white"/>
<path d="M65.8159 53.3187C67.644 51.4906 67.644 48.5156 65.8174 46.689C63.9893 44.8609 61.0159 44.8593 59.1877 46.6875L46.7127 59.1624C44.8862 60.989 44.819 64.0312 46.6471 65.8593C48.4721 67.6875 51.5034 67.6312 53.3315 65.8031L65.819 53.3187H65.8159ZM63.6065 51.1093L51.169 63.5468C50.558 64.1578 49.4627 64.2609 48.8565 63.65C48.2455 63.039 48.3252 61.9718 48.9362 61.3609L61.3987 48.8984C62.0096 48.2875 62.9971 48.2875 63.608 48.8984C64.2174 49.5078 64.2174 50.4984 63.6065 51.1093Z" fill="white"/>
<path d="M53.3096 40.8126C55.1378 38.9845 55.1378 36.0095 53.3112 34.1829C51.4831 32.3548 48.5096 32.3532 46.6815 34.1813L34.2065 46.6563C32.3799 48.4829 32.3128 51.5251 34.1409 53.3532C35.9659 55.1813 38.9971 55.1251 40.8253 53.297L53.3128 40.8126H53.3096ZM51.1003 38.6032L38.6628 51.0407C38.0518 51.6517 36.9565 51.7548 36.3503 51.1438C35.7393 50.5329 35.819 49.4657 36.4299 48.8548L48.8924 36.3923C49.5034 35.7813 50.4909 35.7813 51.1018 36.3923C51.7112 37.0017 51.7112 37.9923 51.1003 38.6032Z" fill="white"/>
</g>
<defs>
<clipPath id="clip0_36_174">
<rect width="100" height="100" fill="white" transform="translate(0.000244141)"/>
</clipPath>
</defs>
</svg>
